<svg xmlns="http://www.w3.org/2000/svg" viewBox="0 0 128 160" width="128" height="160" shape-rendering="crispEdges">
  <rect x="32" y="0" width="8" height="8" fill="#C8875A"/>
  <rect x="40" y="0" width="8" height="8" fill="#C8875A"/>
  <rect x="48" y="0" width="8" height="8" fill="#C8875A"/>
  <rect x="56" y="0" width="8" height="8" fill="#C8875A"/>
  <rect x="64" y="0" width="8" height="8" fill="#C8875A"/>
  <rect x="72" y="0" width="8" height="8" fill="#C8875A"/>
  <rect x="80" y="0" width="8" height="8" fill="#C8875A"/>
  <rect x="88" y="0" width="8" height="8" fill="#C8875A"/>
  <rect x="24" y="8" width="8" height="8" fill="#C8875A"/>
  <rect x="32" y="8" width="8" height="8" fill="#C8875A"/>
  <rect x="40" y="8" width="8" height="8" fill="#C8875A"/>
  <rect x="48" y="8" width="8" height="8" fill="#C8875A"/>
  <rect x="56" y="8" width="8" height="8" fill="#C8875A"/>
  <rect x="64" y="8" width="8" height="8" fill="#C8875A"/>
  <rect x="72" y="8" width="8" height="8" fill="#C8875A"/>
  <rect x="80" y="8" width="8" height="8" fill="#C8875A"/>
  <rect x="88" y="8" width="8" height="8" fill="#C8875A"/>
  <rect x="96" y="8" width="8" height="8" fill="#C8875A"/>
  <rect x="16" y="16" width="8" height="8" fill="#C8875A"/>
  <rect x="24" y="16" width="8" height="8" fill="#C8875A"/>
  <rect x="32" y="16" width="8" height="8" fill="#C8875A"/>
  <rect x="40" y="16" width="8" height="8" fill="#C8875A"/>
  <rect x="48" y="16" width="8" height="8" fill="#C8875A"/>
  <rect x="56" y="16" width="8" height="8" fill="#C8875A"/>
  <rect x="64" y="16" width="8" height="8" fill="#C8875A"/>
  <rect x="72" y="16" width="8" height="8" fill="#C8875A"/>
  <rect x="80" y="16" width="8" height="8" fill="#C8875A"/>
  <rect x="88" y="16" width="8" height="8" fill="#C8875A"/>
  <rect x="96" y="16" width="8" height="8" fill="#C8875A"/>
  <rect x="104" y="16" width="8" height="8" fill="#C8875A"/>
  <rect x="8" y="24" width="8" height="8" fill="#C8875A"/>
  <rect x="24" y="24" width="8" height="8" fill="#C8875A"/>
  <rect x="32" y="24" width="8" height="8" fill="#C8875A"/>
  <rect x="40" y="24" width="8" height="8" fill="#C8875A"/>
  <rect x="48" y="24" width="8" height="8" fill="#C8875A"/>
  <rect x="56" y="24" width="8" height="8" fill="#C8875A"/>
  <rect x="64" y="24" width="8" height="8" fill="#C8875A"/>
  <rect x="72" y="24" width="8" height="8" fill="#C8875A"/>
  <rect x="80" y="24" width="8" height="8" fill="#C8875A"/>
  <rect x="88" y="24" width="8" height="8" fill="#C8875A"/>
  <rect x="96" y="24" width="8" height="8" fill="#C8875A"/>
  <rect x="112" y="24" width="8" height="8" fill="#C8875A"/>
  <rect x="8" y="32" width="8" height="8" fill="#C8875A"/>
  <rect x="24" y="32" width="8" height="8" fill="#C8875A"/>
  <rect x="32" y="32" width="8" height="8" fill="#C8875A"/>
  <rect x="40" y="32" width="8" height="8" fill="#251008"/>
  <rect x="48" y="32" width="8" height="8" fill="#251008"/>
  <rect x="56" y="32" width="8" height="8" fill="#C8875A"/>
  <rect x="64" y="32" width="8" height="8" fill="#C8875A"/>
  <rect x="72" y="32" width="8" height="8" fill="#251008"/>
  <rect x="80" y="32" width="8" height="8" fill="#251008"/>
  <rect x="88" y="32" width="8" height="8" fill="#C8875A"/>
  <rect x="96" y="32" width="8" height="8" fill="#C8875A"/>
  <rect x="112" y="32" width="8" height="8" fill="#C8875A"/>
  <rect x="8" y="40" width="8" height="8" fill="#C8875A"/>
  <rect x="24" y="40" width="8" height="8" fill="#C8875A"/>
  <rect x="32" y="40" width="8" height="8" fill="#C8875A"/>
  <rect x="40" y="40" width="8" height="8" fill="#251008"/>
  <rect x="48" y="40" width="8" height="8" fill="#251008"/>
  <rect x="56" y="40" width="8" height="8" fill="#C8875A"/>
  <rect x="64" y="40" width="8" height="8" fill="#C8875A"/>
  <rect x="72" y="40" width="8" height="8" fill="#251008"/>
  <rect x="80" y="40" width="8" height="8" fill="#251008"/>
  <rect x="88" y="40" width="8" height="8" fill="#C8875A"/>
  <rect x="96" y="40" width="8" height="8" fill="#C8875A"/>
  <rect x="112" y="40" width="8" height="8" fill="#C8875A"/>
  <rect x="16" y="48" width="8" height="8" fill="#C8875A"/>
  <rect x="24" y="48" width="8" height="8" fill="#C8875A"/>
  <rect x="32" y="48" width="8" height="8" fill="#C8875A"/>
  <rect x="40" y="48" width="8" height="8" fill="#C8875A"/>
  <rect x="48" y="48" width="8" height="8" fill="#C8875A"/>
  <rect x="56" y="48" width="8" height="8" fill="#C8875A"/>
  <rect x="64" y="48" width="8" height="8" fill="#C8875A"/>
  <rect x="72" y="48" width="8" height="8" fill="#C8875A"/>
  <rect x="80" y="48" width="8" height="8" fill="#C8875A"/>
  <rect x="88" y="48" width="8" height="8" fill="#C8875A"/>
  <rect x="96" y="48" width="8" height="8" fill="#C8875A"/>
  <rect x="104" y="48" width="8" height="8" fill="#C8875A"/>
  <rect x="24" y="56" width="8" height="8" fill="#C8875A"/>
  <rect x="32" y="56" width="8" height="8" fill="#C8875A"/>
  <rect x="40" y="56" width="8" height="8" fill="#A06030"/>
  <rect x="48" y="56" width="8" height="8" fill="#C8875A"/>
  <rect x="56" y="56" width="8" height="8" fill="#C8875A"/>
  <rect x="64" y="56" width="8" height="8" fill="#C8875A"/>
  <rect x="72" y="56" width="8" height="8" fill="#A06030"/>
  <rect x="80" y="56" width="8" height="8" fill="#C8875A"/>
  <rect x="88" y="56" width="8" height="8" fill="#C8875A"/>
  <rect x="96" y="56" width="8" height="8" fill="#C8875A"/>
  <rect x="32" y="64" width="8" height="8" fill="#C8875A"/>
  <rect x="40" y="64" width="8" height="8" fill="#C8875A"/>
  <rect x="48" y="64" width="8" height="8" fill="#C8875A"/>
  <rect x="56" y="64" width="8" height="8" fill="#C8875A"/>
  <rect x="64" y="64" width="8" height="8" fill="#C8875A"/>
  <rect x="72" y="64" width="8" height="8" fill="#C8875A"/>
  <rect x="80" y="64" width="8" height="8" fill="#C8875A"/>
  <rect x="88" y="64" width="8" height="8" fill="#C8875A"/>
  <rect x="24" y="80" width="8" height="8" fill="#C8875A"/>
  <rect x="32" y="80" width="8" height="8" fill="#C8875A"/>
  <rect x="40" y="80" width="8" height="8" fill="#C8875A"/>
  <rect x="48" y="80" width="8" height="8" fill="#C8875A"/>
  <rect x="56" y="80" width="8" height="8" fill="#C8875A"/>
  <rect x="64" y="80" width="8" height="8" fill="#C8875A"/>
  <rect x="72" y="80" width="8" height="8" fill="#C8875A"/>
  <rect x="80" y="80" width="8" height="8" fill="#C8875A"/>
  <rect x="88" y="80" width="8" height="8" fill="#C8875A"/>
  <rect x="96" y="80" width="8" height="8" fill="#C8875A"/>
  <rect x="16" y="88" width="8" height="8" fill="#C8875A"/>
  <rect x="24" y="88" width="8" height="8" fill="#C8875A"/>
  <rect x="32" y="88" width="8" height="8" fill="#C8875A"/>
  <rect x="40" y="88" width="8" height="8" fill="#C8875A"/>
  <rect x="48" y="88" width="8" height="8" fill="#C8875A"/>
  <rect x="56" y="88" width="8" height="8" fill="#C8875A"/>
  <rect x="64" y="88" width="8" height="8" fill="#C8875A"/>
  <rect x="72" y="88" width="8" height="8" fill="#C8875A"/>
  <rect x="80" y="88" width="8" height="8" fill="#C8875A"/>
  <rect x="88" y="88" width="8" height="8" fill="#C8875A"/>
  <rect x="96" y="88" width="8" height="8" fill="#C8875A"/>
  <rect x="104" y="88" width="8" height="8" fill="#C8875A"/>
  <rect x="8" y="96" width="8" height="8" fill="#C8875A"/>
  <rect x="24" y="96" width="8" height="8" fill="#C8875A"/>
  <rect x="32" y="96" width="8" height="8" fill="#C8875A"/>
  <rect x="40" y="96" width="8" height="8" fill="#C8875A"/>
  <rect x="48" y="96" width="8" height="8" fill="#C8875A"/>
  <rect x="56" y="96" width="8" height="8" fill="#C8875A"/>
  <rect x="64" y="96" width="8" height="8" fill="#C8875A"/>
  <rect x="72" y="96" width="8" height="8" fill="#C8875A"/>
  <rect x="80" y="96" width="8" height="8" fill="#C8875A"/>
  <rect x="88" y="96" width="8" height="8" fill="#C8875A"/>
  <rect x="96" y="96" width="8" height="8" fill="#C8875A"/>
  <rect x="112" y="96" width="8" height="8" fill="#C8875A"/>
  <rect x="8" y="104" width="8" height="8" fill="#C8875A"/>
  <rect x="24" y="104" width="8" height="8" fill="#C8875A"/>
  <rect x="32" y="104" width="8" height="8" fill="#C8875A"/>
  <rect x="40" y="104" width="8" height="8" fill="#C8875A"/>
  <rect x="48" y="104" width="8" height="8" fill="#C8875A"/>
  <rect x="56" y="104" width="8" height="8" fill="#C8875A"/>
  <rect x="64" y="104" width="8" height="8" fill="#C8875A"/>
  <rect x="72" y="104" width="8" height="8" fill="#C8875A"/>
  <rect x="80" y="104" width="8" height="8" fill="#C8875A"/>
  <rect x="88" y="104" width="8" height="8" fill="#C8875A"/>
  <rect x="96" y="104" width="8" height="8" fill="#C8875A"/>
  <rect x="112" y="104" width="8" height="8" fill="#C8875A"/>
  <rect x="16" y="112" width="8" height="8" fill="#C8875A"/>
  <rect x="24" y="112" width="8" height="8" fill="#C8875A"/>
  <rect x="32" y="112" width="8" height="8" fill="#C8875A"/>
  <rect x="40" y="112" width="8" height="8" fill="#C8875A"/>
  <rect x="48" y="112" width="8" height="8" fill="#C8875A"/>
  <rect x="56" y="112" width="8" height="8" fill="#C8875A"/>
  <rect x="64" y="112" width="8" height="8" fill="#C8875A"/>
  <rect x="72" y="112" width="8" height="8" fill="#C8875A"/>
  <rect x="80" y="112" width="8" height="8" fill="#C8875A"/>
  <rect x="88" y="112" width="8" height="8" fill="#C8875A"/>
  <rect x="96" y="112" width="8" height="8" fill="#C8875A"/>
  <rect x="104" y="112" width="8" height="8" fill="#C8875A"/>
  <rect x="32" y="120" width="8" height="8" fill="#C8875A"/>
  <rect x="40" y="120" width="8" height="8" fill="#C8875A"/>
  <rect x="48" y="120" width="8" height="8" fill="#C8875A"/>
  <rect x="56" y="120" width="8" height="8" fill="#C8875A"/>
  <rect x="64" y="120" width="8" height="8" fill="#C8875A"/>
  <rect x="72" y="120" width="8" height="8" fill="#C8875A"/>
  <rect x="80" y="120" width="8" height="8" fill="#C8875A"/>
  <rect x="88" y="120" width="8" height="8" fill="#C8875A"/>
  <rect x="32" y="136" width="8" height="8" fill="#C8875A"/>
  <rect x="40" y="136" width="8" height="8" fill="#C8875A"/>
  <rect x="80" y="136" width="8" height="8" fill="#C8875A"/>
  <rect x="88" y="136" width="8" height="8" fill="#C8875A"/>
  <rect x="32" y="144" width="8" height="8" fill="#C8875A"/>
  <rect x="40" y="144" width="8" height="8" fill="#C8875A"/>
  <rect x="80" y="144" width="8" height="8" fill="#C8875A"/>
  <rect x="88" y="144" width="8" height="8" fill="#C8875A"/>
  <rect x="32" y="152" width="8" height="8" fill="#C8875A"/>
  <rect x="40" y="152" width="8" height="8" fill="#C8875A"/>
  <rect x="80" y="152" width="8" height="8" fill="#C8875A"/>
  <rect x="88" y="152" width="8" height="8" fill="#C8875A"/>
</svg>
